<svg width="334" height="334" viewBox="0 0 334 334" fill="none" xmlns="http://www.w3.org/2000/svg">
<circle cx="167" cy="167" r="167" fill="#F0F2F7"/>
<path d="M59 201.147V135.029C59 133.846 59.4529 132.677 60.3514 131.91C61.0819 131.289 61.9001 130.975 62.7986 130.975H83.1869C84.3703 130.975 85.5391 131.391 86.3573 132.246C87.022 132.947 87.3508 133.787 87.3508 134.773V181.14C87.3508 182.353 88.3296 183.332 89.5423 183.332H122.05C123.233 183.332 124.409 183.748 125.22 184.603C125.877 185.304 126.213 186.144 126.213 187.13V202.841C126.213 204.193 125.629 205.522 124.511 206.282C123.854 206.728 123.109 206.947 122.269 206.947L64.8513 206.983C61.6152 206.991 59 204.376 59 201.147Z" fill="#0B0B0B"/>
<path d="M165.841 206.978C159.43 206.963 153.807 205.984 148.958 204.027C144.109 202.069 140.348 198.877 137.668 194.435C134.988 190.001 133.659 184.128 133.674 176.823L133.718 153.301L122.11 153.279C121.073 153.279 120.204 152.914 119.496 152.176C118.787 151.438 118.437 150.547 118.444 149.473L118.473 134.717C118.473 133.643 118.831 132.744 119.54 132.014C120.248 131.283 121.117 130.918 122.154 130.925L133.761 130.947L133.791 116.791C133.791 115.717 134.148 114.819 134.857 114.088C135.565 113.358 136.434 113 137.471 113L157.962 113.037C158.999 113.037 159.868 113.402 160.576 114.14C161.285 114.877 161.635 115.776 161.628 116.842L161.599 130.999L179.409 131.035C180.446 131.035 181.315 131.4 182.024 132.138C182.732 132.876 183.083 133.774 183.075 134.841L183.046 149.597C183.046 150.671 182.688 151.569 181.98 152.3C181.272 153.03 180.395 153.396 179.366 153.388L161.555 153.352L161.518 174.39C161.518 177.217 162.073 179.431 163.205 181.038C164.337 182.645 166.119 183.456 168.572 183.456L180.446 183.478C181.483 183.478 182.352 183.843 183.061 184.581C183.769 185.319 184.119 186.217 184.112 187.284L184.083 203.209C184.083 204.282 183.725 205.181 183.017 205.911C182.308 206.642 181.432 207.007 180.403 207L165.849 206.971L165.841 206.978Z" fill="#0B0B0B"/>
<path d="M195.02 206.953C194.079 206.953 193.305 206.61 192.7 205.931C192.087 205.251 191.788 204.47 191.788 203.593C191.788 203.301 191.832 202.958 191.927 202.57C192.021 202.183 192.211 201.789 192.488 201.402L215 168.617C215.336 168.127 215.343 167.477 215.015 166.98L194.742 136.54C194.553 136.248 194.392 135.905 194.246 135.518C194.108 135.131 194.035 134.736 194.035 134.349C194.035 133.472 194.363 132.691 195.02 132.011C195.676 131.332 196.428 130.989 197.274 130.989H218.801C220.114 130.989 221.099 131.303 221.755 131.938C222.412 132.574 222.879 133.129 223.163 133.618L232.501 147.71C233.077 148.579 234.354 148.579 234.93 147.71L244.268 133.618C244.64 133.129 245.136 132.574 245.741 131.938C246.347 131.303 247.31 130.989 248.623 130.989H269.165C270.011 130.989 270.755 131.332 271.419 132.011C272.076 132.691 272.404 133.421 272.404 134.203C272.404 134.692 272.353 135.131 272.265 135.518C272.171 135.905 271.981 136.248 271.704 136.54L251.03 166.973C250.687 167.477 250.694 168.135 251.045 168.631L273.958 201.409C274.242 201.796 274.425 202.191 274.52 202.578C274.614 202.965 274.658 203.308 274.658 203.6C274.658 204.477 274.33 205.259 273.673 205.938C273.017 206.617 272.265 206.961 271.419 206.961H248.907C247.689 206.961 246.799 206.669 246.237 206.084C245.675 205.5 245.201 204.967 244.829 204.477L234.332 189.239C233.756 188.406 232.53 188.399 231.946 189.217L221.055 204.47C220.771 204.959 220.326 205.492 219.72 206.077C219.107 206.661 218.196 206.953 216.977 206.953H195.02Z" fill="#0B0B0B"/>
</svg>
